<svg xmlns="http://www.w3.org/2000/svg" viewBox="0 0 300 200">
  <rect width="300" height="200" fill="#b22234"/>
  <g fill="#ffffff">
    <rect y="15.38" width="300" height="15.38"/>
    <rect y="46.15" width="300" height="15.38"/>
    <rect y="76.92" width="300" height="15.38"/>
    <rect y="107.69" width="300" height="15.38"/>
    <rect y="138.46" width="300" height="15.38"/>
    <rect y="169.23" width="300" height="15.38"/>
  </g>
  <rect width="120" height="107.69" fill="#3c3b6e"/>
  <g fill="#ffffff">
    <circle cx="20" cy="18" r="5"/><circle cx="44" cy="18" r="5"/><circle cx="68" cy="18" r="5"/><circle cx="92" cy="18" r="5"/>
    <circle cx="32" cy="36" r="5"/><circle cx="56" cy="36" r="5"/><circle cx="80" cy="36" r="5"/><circle cx="104" cy="36" r="5"/>
    <circle cx="20" cy="54" r="5"/><circle cx="44" cy="54" r="5"/><circle cx="68" cy="54" r="5"/><circle cx="92" cy="54" r="5"/>
    <circle cx="32" cy="72" r="5"/><circle cx="56" cy="72" r="5"/><circle cx="80" cy="72" r="5"/><circle cx="104" cy="72" r="5"/>
    <circle cx="20" cy="90" r="5"/><circle cx="44" cy="90" r="5"/><circle cx="68" cy="90" r="5"/><circle cx="92" cy="90" r="5"/>
  </g>
</svg>
